<?xml version="1.0" standalone="no"?>
<!DOCTYPE svg PUBLIC "-//W3C//DTD SVG 20010904//EN"
 "http://www.w3.org/TR/2001/REC-SVG-20010904/DTD/svg10.dtd">
<svg version="1.0" xmlns="http://www.w3.org/2000/svg"
 width="420.000000pt" height="460.000000pt" viewBox="0 0 420.000000 460.000000"
 preserveAspectRatio="xMidYMid meet">

<g transform="translate(0.000000,460.000000) scale(0.100000,-0.100000)"
fill="#000000" stroke="none">
<path d="M2810 4161 c-19 -10 -42 -29 -51 -42 -22 -30 -36 -109 -19 -109 6 0
9 8 6 18 -10 30 35 105 74 125 43 22 112 18 142 -9 66 -59 53 -177 -25 -224
-63 -39 -142 -18 -176 48 -11 20 -20 30 -21 21 0 -9 11 -33 25 -53 29 -43 23
-64 -25 -92 -41 -25 -43 -38 -14 -95 33 -62 24 -93 -29 -103 -46 -9 -61 -28
-53 -68 22 -104 22 -101 -39 -168 l-56 -61 26 -45 c14 -24 24 -48 21 -52 -3
-5 -23 -17 -46 -27 -26 -12 -43 -27 -46 -42 -8 -29 -15 -29 -51 0 -62 51 -127
86 -167 91 -22 3 -85 11 -139 17 -103 13 -180 6 -230 -23 -109 -61 -213 -107
-231 -102 -35 11 -37 19 -16 66 32 73 21 101 -56 144 -35 20 -66 39 -68 43 -3
4 4 27 15 51 35 78 34 108 -4 144 -27 25 -32 36 -26 56 22 78 3 109 -71 121
-71 11 -78 20 -47 61 53 69 44 162 -19 218 -39 34 -96 40 -149 15 l-30 -14 30
7 c17 3 50 6 74 6 38 -1 49 -6 78 -37 29 -32 33 -44 33 -89 0 -71 -26 -113
-79 -129 -84 -25 -170 26 -189 113 -8 36 -10 38 -11 14 -1 -39 43 -112 79
-131 16 -8 42 -15 57 -15 21 0 32 -8 45 -30 22 -38 74 -70 116 -70 17 0 32 -3
32 -6 0 -4 -10 -26 -21 -50 -24 -46 -20 -74 9 -74 10 0 26 -8 36 -18 15 -17
15 -25 0 -95 -20 -97 -9 -127 51 -142 22 -5 46 -14 53 -18 17 -11 15 -52 -4
-88 -8 -17 -14 -48 -13 -70 3 -36 0 -43 -28 -60 -17 -11 -46 -43 -64 -72 -18
-29 -54 -75 -80 -103 -28 -30 -49 -64 -54 -85 -3 -19 -13 -52 -20 -74 -9 -25
-16 -113 -19 -237 -5 -166 -4 -204 9 -235 18 -43 87 -137 155 -212 9 -9 26
-34 39 -55 15 -24 40 -45 65 -57 23 -10 63 -38 89 -63 27 -25 77 -64 112 -88
66 -44 77 -65 48 -89 -9 -8 -31 -45 -50 -84 -30 -64 -33 -77 -33 -165 0 -81 6
-115 38 -227 l39 -131 -14 -129 c-18 -166 -13 -560 8 -575 8 -5 34 -6 59 -2
25 4 164 8 310 9 146 2 316 6 379 10 l114 7 -7 172 c-3 94 -9 254 -12 356 -7
210 -8 209 62 87 24 -43 46 -71 55 -70 9 2 25 -28 48 -95 36 -105 71 -161 113
-186 60 -36 113 -8 153 80 14 30 25 57 25 60 0 8 102 264 175 439 101 244 137
346 130 375 -8 30 -43 70 -62 70 -11 0 -13 10 -9 43 20 152 17 187 -15 187
-25 0 -37 -26 -58 -123 l-18 -82 -41 3 c-33 3 -43 0 -52 -17 -6 -12 -19 -21
-29 -21 -25 0 -39 -19 -41 -55 -4 -56 0 -74 19 -92 13 -13 20 -39 24 -93 l6
-75 -75 -155 c-68 -137 -78 -152 -89 -136 -8 10 -11 31 -8 50 7 42 -44 192
-103 304 -60 115 -156 252 -214 306 l-49 46 83 82 c127 127 160 216 155 421
-3 104 -1 115 20 143 29 39 37 99 22 161 -18 71 -57 122 -123 157 -78 42 -138
119 -142 180 -1 25 -9 53 -18 63 -8 10 -26 49 -38 87 l-23 70 39 33 c21 18 46
35 56 38 25 9 28 28 13 84 -13 50 -13 51 18 92 54 71 57 79 44 127 l-11 43 46
39 c57 49 66 79 38 132 -11 22 -17 45 -13 52 16 28 69 63 104 70 68 12 129 95
129 175 0 14 -12 42 -26 62 -41 59 -118 76 -184 40z m-437 -1095 c42 -8 89
-22 105 -30 29 -15 164 -154 204 -208 32 -46 -1 -34 -59 20 -62 58 -143 103
-241 132 -63 19 -90 22 -195 18 -106 -4 -132 -9 -199 -35 -90 -36 -139 -71
-230 -167 -128 -136 -166 -230 -175 -436 -4 -93 -10 -130 -21 -143 -15 -17
-16 -17 -25 -1 -16 28 -21 242 -7 321 32 195 221 441 382 499 123 44 319 57
461 30z m-103 -96 c146 -15 266 -67 340 -145 l23 -25 -29 0 c-29 0 -80 -27
-59 -31 6 -1 51 -3 100 -3 102 -2 134 -14 183 -70 27 -31 52 -89 52 -122 0 -7
-36 -11 -97 -13 -54 -1 -140 -8 -190 -15 l-93 -12 0 27 c0 46 -18 42 -25 -5
-6 -36 -3 -55 15 -90 61 -128 221 -167 322 -79 15 13 17 10 23 -39 11 -91 -11
-223 -50 -303 -39 -79 -67 -112 -152 -181 -78 -64 -136 -88 -272 -115 -106
-21 -123 -22 -235 -11 -148 15 -212 31 -281 73 -77 47 -175 137 -168 154 4 12
-4 15 -36 15 -61 0 -111 59 -111 132 0 30 45 87 80 101 11 4 12 8 3 14 -26 19
5 287 43 380 20 47 100 156 151 204 40 39 136 106 191 133 27 14 89 27 158 35
7 0 58 -4 114 -9z m438 -450 c13 -21 42 -17 42 6 0 11 16 14 66 14 63 0 65 -1
59 -22 -48 -158 -239 -207 -339 -88 -24 29 -43 76 -35 85 2 2 42 8 89 13 47 5
90 10 95 11 6 0 16 -8 23 -19z m648 -652 c-17 -166 -19 -208 -8 -208 6 0 12
10 14 22 l3 23 23 -25 c12 -13 22 -34 22 -46 0 -28 -35 -123 -135 -364 -41
-102 -98 -243 -126 -315 -72 -189 -95 -234 -125 -245 -14 -6 -29 -10 -34 -10
-16 0 -71 52 -87 83 -12 25 -103 274 -103 284 0 2 19 16 42 33 28 20 53 30 78
30 33 0 39 -4 55 -40 17 -39 17 -41 -4 -91 -23 -56 -25 -69 -13 -69 5 0 23 35
42 78 36 84 155 327 186 380 17 28 17 34 4 42 -12 7 -14 28 -13 96 3 82 -5
114 -28 114 -5 0 -9 -9 -9 -20 0 -11 5 -20 10 -20 6 0 10 -7 10 -16 0 -14 -3
-14 -15 -4 -11 9 -15 27 -13 58 3 40 6 47 31 53 24 6 29 3 42 -22 9 -16 20
-29 25 -29 16 0 12 13 -15 53 -25 36 -25 37 -5 37 33 0 57 -17 64 -45 4 -14
11 -25 16 -25 12 0 12 3 1 33 -9 24 -5 48 35 185 21 74 38 68 30 -10z m-663
-167 c140 -179 236 -364 262 -503 7 -37 6 -38 -21 -38 -45 -1 -107 -34 -141
-75 l-31 -37 -18 33 c-9 19 -30 53 -46 77 l-30 43 21 52 c32 81 35 108 12 145
-15 22 -28 32 -46 32 -36 0 -38 16 -21 109 16 82 10 131 -15 131 -26 0 -74
-68 -89 -126 -16 -58 -17 -59 -60 -70 -34 -8 -50 -19 -67 -45 -12 -19 -31 -43
-42 -55 -13 -13 -21 -34 -21 -53 0 -38 33 -106 55 -114 22 -9 19 -18 -27 -88
-24 -35 -60 -92 -82 -126 -57 -92 -61 -94 -80 -29 -9 30 -16 72 -16 93 0 51
-84 346 -100 351 -15 5 -9 -24 36 -173 18 -60 36 -127 39 -147 7 -37 7 -38
-24 -38 -46 0 -94 -23 -144 -69 -24 -23 -47 -41 -50 -41 -18 0 -84 168 -133
336 -24 80 -29 118 -29 199 1 90 3 105 29 155 16 29 38 68 50 85 11 16 22 31
22 33 1 2 26 -4 54 -12 29 -9 112 -21 184 -27 125 -11 136 -10 253 15 67 14
144 36 170 49 l47 24 28 -20 c15 -11 48 -46 71 -76z m-87 -191 c-9 -38 -16
-80 -16 -94 0 -29 16 -35 23 -8 4 14 6 14 12 -5 8 -26 25 -31 25 -8 0 21 17
19 30 -4 25 -49 4 -108 -82 -231 -32 -47 -89 -134 -125 -195 -91 -153 -167
-264 -221 -325 -43 -48 -49 -51 -74 -41 -32 12 -63 65 -113 191 -20 52 -43
109 -51 127 -11 28 -11 34 1 47 26 26 79 53 115 60 l35 6 20 -74 c20 -72 20
-74 3 -96 -26 -32 -13 -38 18 -9 34 31 88 105 147 201 26 42 61 91 78 109 17
18 26 35 21 37 -44 14 -92 84 -92 132 0 18 3 17 28 -9 39 -43 82 -46 100 -6
18 38 -11 97 -38 80 -8 -5 -7 -11 1 -21 9 -11 8 -14 -5 -14 -23 0 -20 -15 7
-27 21 -10 21 -11 3 -19 -22 -9 -50 6 -54 31 -2 9 4 35 14 56 14 32 22 39 45
39 15 0 31 -4 34 -10 3 -5 14 -14 23 -19 15 -8 17 -2 19 48 2 66 25 136 56
169 l22 24 3 -37 c2 -20 -4 -67 -12 -105z m-86 -60 c0 -5 -2 -10 -4 -10 -3 0
-8 5 -11 10 -3 6 -1 10 4 10 6 0 11 -4 11 -10z m135 -502 c0 -134 1 -299 3
-367 2 -68 1 -125 -2 -128 -2 -3 -154 -7 -336 -9 -182 -3 -362 -9 -398 -13
-37 -5 -70 -7 -73 -5 -9 5 -11 420 -3 541 4 59 9 101 11 93 3 -8 17 -42 33
-75 16 -33 34 -73 40 -89 9 -24 14 -28 39 -23 27 6 29 3 60 -76 74 -192 133
-257 200 -223 47 25 97 92 211 281 157 261 203 335 209 335 4 0 6 -109 6 -242z
m145 61 c0 -6 -4 -7 -10 -4 -5 3 -10 11 -10 16 0 6 5 7 10 4 6 -3 10 -11 10
-16z m-810 -94 c0 -8 -7 -15 -15 -15 -16 0 -20 12 -8 23 11 12 23 8 23 -8z"/>
<path d="M2030 2753 c-25 -3 -49 -9 -55 -14 -7 -7 35 -9 124 -8 l134 2 53 -55
c35 -36 56 -69 64 -97 15 -56 8 -72 -29 -67 -41 4 -367 -11 -392 -19 -15 -5
-20 -1 -25 24 -6 30 -18 39 -27 23 -12 -18 17 -121 46 -164 100 -150 339 -129
425 36 56 107 38 202 -56 299 l-46 47 -86 -2 c-47 -1 -105 -3 -130 -5z m320
-268 c0 -23 -34 -86 -64 -118 -62 -67 -182 -87 -266 -44 -44 22 -92 79 -105
124 -8 28 1 30 153 38 98 6 112 5 112 -9 0 -23 37 -20 43 4 4 17 14 20 66 20
48 0 61 -3 61 -15z"/>
<path d="M2539 2315 c36 -42 39 -60 11 -75 -16 -9 -28 -7 -52 5 -20 9 -35 12
-41 6 -12 -12 44 -41 81 -41 61 0 72 63 20 111 -45 40 -57 37 -19 -6z"/>
<path d="M2495 2044 c-97 -13 -162 -27 -188 -40 -43 -23 -29 -25 38 -7 66 18
262 24 308 9 17 -5 27 -4 27 2 0 22 -116 45 -185 36z"/>
<path d="M1181 4034 c-12 -15 -21 -32 -21 -38 0 -6 6 -2 12 9 6 11 18 28 26
38 8 9 12 17 9 17 -3 0 -15 -12 -26 -26z"/>
</g>
</svg>
