<?xml version="1.0" standalone="no"?>
<!DOCTYPE svg PUBLIC "-//W3C//DTD SVG 20010904//EN"
 "http://www.w3.org/TR/2001/REC-SVG-20010904/DTD/svg10.dtd">
<svg version="1.0" xmlns="http://www.w3.org/2000/svg"
 width="735.000000pt" height="729.000000pt" viewBox="0 0 735.000000 729.000000"
 preserveAspectRatio="xMidYMid meet">

<g transform="translate(0.000000,729.000000) scale(0.100000,-0.100000)"
fill="#000000" stroke="none">
<path d="M3350 7214 c-301 -29 -623 -101 -879 -194 -1741 -636 -2710 -2461
-2260 -4255 199 -792 681 -1507 1349 -2002 322 -238 739 -444 1131 -558 533
-155 1149 -180 1699 -69 1349 272 2430 1301 2765 2633 76 305 105 545 105 884
0 339 -36 620 -116 917 -231 853 -757 1583 -1489 2066 -362 239 -757 408
-1170 503 -363 82 -782 110 -1135 75z m740 -59 c412 -48 772 -156 1155 -345
372 -183 654 -386 945 -679 380 -383 665 -843 835 -1346 79 -236 126 -441 167
-735 9 -63 13 -202 13 -415 -1 -296 -3 -333 -28 -492 -98 -636 -329 -1172
-723 -1683 -110 -142 -411 -446 -559 -564 -640 -509 -1398 -775 -2207 -776
-725 0 -1397 205 -1987 607 -507 345 -904 799 -1178 1348 -159 318 -277 686
-328 1026 -23 153 -45 418 -45 544 0 127 23 405 45 548 108 712 444 1384 950
1906 631 650 1416 1010 2345 1075 110 8 468 -4 600 -19z"/>
<path d="M3482 6950 c-57 -12 -138 -57 -169 -95 -133 -156 -88 -395 90 -487
56 -29 175 -36 237 -14 53 18 54 17 70 -73 6 -37 13 -74 16 -83 5 -16 -4 -18
-93 -18 -98 0 -287 -19 -404 -40 -475 -86 -931 -318 -1286 -654 l-101 -96 -58
15 c-32 8 -70 15 -84 15 -81 0 -158 -52 -185 -125 -17 -43 -17 -44 18 -149
l35 -106 -56 -92 c-171 -284 -292 -636 -337 -983 -23 -177 -20 -478 6 -656 65
-454 233 -851 517 -1219 94 -123 329 -351 462 -451 368 -274 784 -442 1226
-494 150 -17 423 -20 562 -4 1050 115 1918 865 2181 1884 56 219 75 373 75
625 0 241 -11 348 -60 570 -100 448 -347 894 -677 1219 l-75 74 34 68 c50 100
48 103 -37 65 -95 -43 -96 -43 -176 18 -40 30 -107 77 -150 105 l-78 50 1 118
0 118 55 97 c29 54 59 98 65 98 7 0 14 -15 18 -32 4 -25 36 -274 36 -284 0 -5
71 -46 75 -43 1 2 -5 58 -15 124 -10 66 -20 138 -23 161 l-5 40 47 1 c74 1
120 31 155 100 37 74 8 157 -77 217 -47 34 -105 62 -111 55 -2 -2 -58 -102
-126 -222 l-123 -218 -47 88 c-26 48 -53 88 -61 88 -7 0 -31 -31 -52 -70 -45
-83 -157 -255 -166 -255 -3 0 -51 16 -105 36 -123 43 -257 79 -399 104 -100
18 -115 24 -190 74 -46 29 -115 79 -154 111 l-71 57 40 40 c63 63 93 138 92
228 -1 99 -29 164 -99 228 -71 66 -168 92 -263 72z m166 -89 c163 -83 161
-352 -3 -431 -61 -29 -146 -30 -200 -2 -78 40 -122 106 -131 199 -15 148 97
271 237 260 30 -3 74 -14 97 -26z m1646 -391 c18 -17 37 -42 40 -56 10 -37
-11 -90 -44 -114 -40 -28 -122 -26 -158 6 -8 6 104 194 115 194 7 0 28 -14 47
-30z m-1490 -198 c33 -27 82 -61 107 -76 26 -14 84 -62 130 -104 46 -43 104
-92 129 -109 53 -36 138 -124 199 -205 24 -32 47 -58 51 -58 3 0 55 53 114
118 102 110 230 288 286 395 14 26 27 47 31 47 3 0 22 -33 42 -72 47 -93 71
-208 64 -303 -10 -120 -27 -237 -43 -303 -9 -35 -14 -65 -11 -68 2 -2 35 0 73
6 38 6 128 17 199 24 84 9 147 22 179 35 27 12 51 20 53 17 7 -6 -32 -78 -69
-127 -57 -76 -69 -99 -108 -208 -21 -58 -48 -128 -59 -154 -12 -27 -21 -54
-21 -62 0 -16 198 -127 268 -150 28 -9 52 -20 52 -24 0 -8 -71 -68 -145 -123
-27 -21 -78 -70 -112 -110 l-62 -72 34 -38 c19 -20 44 -56 56 -80 35 -70 56
-94 115 -133 l55 -37 -52 -24 c-29 -14 -84 -45 -124 -69 -39 -25 -74 -45 -78
-45 -3 0 -11 16 -17 35 -6 19 -28 48 -48 65 -35 29 -37 33 -40 104 -3 56 1 87
14 123 13 32 19 75 19 128 0 67 -5 90 -28 140 -15 33 -34 66 -41 75 -7 8 -19
44 -26 80 -7 36 -26 109 -41 162 -21 75 -26 110 -22 156 8 89 1 96 -287 243
-75 38 -165 53 -296 47 -83 -4 -127 -11 -183 -31 -94 -33 -136 -62 -241 -167
-96 -96 -151 -190 -192 -335 -21 -74 -23 -99 -22 -320 0 -205 12 -375 29 -435
3 -9 -10 -25 -31 -39 -104 -72 -107 -269 -4 -338 18 -13 48 -23 65 -23 32 0
33 -1 50 -69 9 -37 32 -103 50 -146 19 -44 34 -80 32 -81 -5 -5 -109 -44 -117
-44 -6 0 -10 49 -10 118 l0 118 -149 -4 -150 -4 45 132 c57 171 57 177 -3 184
-69 8 -253 20 -286 19 -21 0 -32 6 -40 24 -10 23 -2 32 136 164 81 77 147 147
147 154 0 7 -17 19 -37 26 -67 21 -135 60 -182 103 -52 48 -173 139 -241 181
-43 27 -44 28 -20 37 32 12 213 54 270 63 59 9 260 93 260 109 0 6 -23 39 -51
71 -28 33 -83 105 -122 160 -39 55 -86 116 -105 137 -38 42 -124 187 -117 198
3 4 25 4 49 -1 42 -8 229 -16 491 -20 l120 -3 9 115 c6 76 5 154 -3 234 -6 66
-11 152 -11 190 0 71 -9 135 -34 258 -7 37 -11 67 -9 67 3 0 33 -22 67 -48z
m-60 -173 c3 -17 6 -68 6 -113 0 -45 5 -120 11 -166 6 -51 8 -135 4 -208 l-7
-123 -257 6 c-141 3 -289 11 -330 17 -54 7 -76 7 -85 -2 -17 -17 65 -164 143
-258 35 -42 85 -108 112 -147 26 -38 69 -96 94 -128 l47 -57 -68 -31 c-71 -31
-104 -41 -294 -84 -137 -31 -200 -53 -200 -70 0 -7 24 -26 53 -43 66 -38 208
-142 270 -199 26 -25 79 -59 117 -77 l70 -32 -50 -49 c-38 -37 -54 -47 -64
-40 -145 104 -284 210 -336 256 -72 63 -208 169 -410 321 -74 56 -157 121
-185 144 -68 58 -317 238 -410 297 -41 26 -75 51 -75 56 0 15 195 187 300 265
419 312 933 489 1436 495 l102 1 6 -31z m426 -19 c147 -28 420 -113 420 -131
0 -5 -37 -49 -82 -97 -46 -48 -84 -89 -86 -92 -2 -2 -7 2 -12 9 -41 67 -164
198 -224 240 -39 27 -80 59 -91 71 l-20 23 20 -7 c11 -3 45 -10 75 -16z m903
-379 c48 -33 99 -69 113 -80 l25 -20 -48 -5 c-26 -4 -76 -11 -109 -16 -34 -6
-74 -10 -89 -10 -23 0 -26 3 -22 23 4 12 11 55 18 95 7 39 15 72 19 72 3 0 45
-27 93 -59z m-525 -228 l67 -18 -115 -6 c-136 -7 -194 -25 -310 -95 -93 -56
-153 -105 -261 -210 -88 -86 -118 -140 -101 -179 19 -40 60 -33 134 23 35 27
115 88 178 137 63 48 143 101 177 117 137 65 321 59 470 -15 47 -23 92 -51 99
-62 13 -21 74 -238 74 -266 0 -15 -5 -14 -41 4 -58 29 -163 34 -234 12 -74
-24 -145 -87 -175 -157 -33 -76 -35 -234 -3 -294 50 -94 145 -147 268 -148 68
-1 89 3 140 27 33 16 70 38 82 49 l23 21 0 -139 c0 -314 -33 -599 -84 -709
-49 -109 -188 -222 -316 -259 -87 -26 -230 -38 -307 -28 -188 27 -312 120
-397 297 -69 143 -104 301 -162 730 -25 185 -26 564 -2 653 48 174 120 291
244 396 116 98 217 134 382 135 68 1 126 -5 170 -16z m1035 -236 c295 -353
494 -807 552 -1257 33 -257 28 -497 -16 -750 -83 -479 -308 -929 -634 -1268
l-92 -96 -40 145 -41 145 9 125 c27 390 28 429 19 545 -16 204 -53 339 -133
483 -54 98 -88 144 -158 216 l-69 70 12 40 c17 57 22 61 89 74 33 7 62 18 65
25 3 7 -4 36 -15 63 -11 28 -17 54 -14 57 4 3 27 6 52 6 54 1 129 14 139 25 4
4 -11 21 -33 39 -21 17 -60 50 -85 73 -43 39 -45 44 -42 86 3 39 8 47 34 58
16 7 58 30 91 52 34 23 89 51 122 63 33 12 61 28 63 35 1 8 -19 27 -45 43 -71
43 -111 84 -145 148 -16 31 -40 66 -53 78 l-24 23 42 54 c23 29 76 79 117 111
96 73 170 141 170 157 0 6 -28 20 -62 29 -58 16 -261 116 -272 134 -3 4 4 28
15 52 11 25 36 89 54 143 39 110 48 129 83 175 l25 34 69 -69 c38 -37 106
-112 151 -166z m-975 183 c144 -19 302 -109 302 -174 0 -15 -6 -29 -14 -32 -8
-3 -49 12 -92 34 -44 22 -103 45 -132 51 -75 16 -217 14 -285 -4 -98 -25 -111
-34 -454 -297 -72 -56 -110 -23 -58 52 25 36 157 160 230 216 70 54 175 112
239 133 96 31 151 36 264 21z m-2754 -74 c104 -51 373 -237 510 -352 34 -27
97 -77 141 -109 124 -91 393 -302 465 -365 36 -31 122 -98 192 -149 70 -50
130 -96 133 -101 3 -5 -24 -38 -62 -73 l-67 -64 -44 61 c-25 34 -58 76 -75 94
-22 22 -32 43 -33 67 -1 55 -35 82 -144 115 -52 16 -156 41 -230 56 -74 15
-140 31 -147 36 -6 5 -21 29 -33 54 -14 32 -102 127 -293 320 -150 151 -279
274 -286 274 -23 0 49 -80 285 -317 208 -208 229 -233 203 -233 -53 0 -183
-49 -233 -87 -64 -49 -124 -136 -134 -193 l-8 -45 -40 63 c-21 34 -61 97 -88
140 -81 127 -273 515 -306 619 -32 100 -32 117 3 167 53 75 167 84 291 22z
m-144 -587 c73 -145 117 -221 245 -417 81 -124 120 -152 211 -152 49 0 53 -2
89 -46 29 -35 39 -58 43 -93 4 -45 3 -46 -38 -70 -23 -13 -72 -46 -109 -72
-131 -97 -156 -124 -206 -221 -27 -51 -60 -107 -75 -125 -31 -35 -70 -129 -76
-183 -13 -105 -21 -364 -13 -406 12 -66 104 -249 168 -336 26 -35 29 -46 24
-87 -10 -89 44 -168 129 -186 25 -6 40 -25 19 -25 -4 0 -46 -37 -92 -83 -117
-116 -220 -208 -230 -205 -15 6 -112 135 -184 243 -201 307 -320 614 -382 990
-20 128 -28 465 -14 611 36 358 159 732 336 1025 l37 61 23 -39 c12 -22 54
-104 95 -184z m3184 121 c101 -38 160 -134 161 -260 0 -130 -40 -196 -151
-251 -40 -20 -64 -24 -129 -23 -119 1 -200 48 -243 142 -22 48 -24 63 -19 131
9 111 22 147 76 201 79 79 194 101 305 60z m-2468 -284 c40 -40 43 -56 10 -56
-41 0 -114 -37 -165 -85 -26 -25 -50 -45 -53 -45 -3 0 -24 26 -46 59 l-41 58
22 20 c30 27 40 33 116 59 91 33 116 31 157 -10z m260 -106 c186 -41 259 -66
284 -97 25 -32 25 -43 0 -43 -16 0 -8 -12 38 -58 105 -105 167 -221 203 -377
20 -87 24 -168 10 -229 -23 -95 -51 -69 -86 79 -44 190 -71 266 -118 333 -44
63 -134 139 -148 125 -4 -5 -4 -28 1 -53 13 -65 12 -198 -1 -223 -15 -29 -29
-37 -59 -37 -45 1 -73 35 -82 101 -4 33 -17 79 -28 102 l-20 42 5 -35 c3 -19
8 -76 11 -125 5 -78 4 -93 -12 -113 -31 -36 -75 -39 -114 -6 -38 32 -70 95
-69 139 l0 30 28 -31 c16 -17 31 -38 33 -45 3 -8 9 -11 12 -7 16 14 -30 82
-97 143 -39 36 -72 63 -74 61 -2 -2 3 -36 11 -77 42 -209 53 -516 22 -581 -19
-40 -51 -57 -70 -39 -7 8 -13 93 -18 254 -8 303 -21 381 -72 437 -20 23 -41
52 -46 66 -15 38 -12 121 5 154 21 42 99 101 158 121 73 26 133 23 293 -11z
m-534 -47 c43 -56 43 -57 43 -140 l0 -83 -38 0 c-43 0 -112 31 -121 55 -10 26
-7 101 5 132 10 27 56 93 64 93 2 0 24 -26 47 -57z m2955 -250 c29 -72 10
-174 -42 -223 l-27 -25 8 135 c6 116 8 143 13 169 3 11 36 -29 48 -56z m-2157
-51 c41 -44 84 -112 70 -112 -5 0 -12 5 -15 10 -3 6 -26 15 -50 21 -41 10 -45
14 -50 48 -3 20 -8 44 -10 54 -5 28 15 20 55 -21z m815 -117 c30 -178 30 -165
5 -165 -81 0 -138 107 -111 208 10 37 68 119 77 109 2 -2 15 -70 29 -152z
m-1295 44 c0 -10 -4 -19 -10 -19 -5 0 -10 4 -10 9 0 5 -3 17 -6 25 -5 12 -2
15 10 10 9 -3 16 -15 16 -25z m515 -53 c28 -12 55 -29 62 -37 12 -15 73 -241
73 -272 0 -23 -17 -20 -108 18 -87 36 -204 43 -341 21 -57 -10 -121 -24 -143
-32 -22 -8 -42 -14 -44 -14 -2 0 -4 24 -5 53 0 28 -6 98 -13 155 -11 99 -5
148 9 80 19 -85 87 -161 145 -161 37 0 78 27 92 61 7 15 13 28 14 30 1 2 17
-6 35 -17 46 -28 75 -26 110 8 24 25 29 37 29 80 0 60 9 63 85 27z m539 -16
c4 -5 -14 -74 -42 -155 -38 -111 -47 -148 -37 -151 7 -3 76 -4 153 -2 l140 3
5 -37 c3 -20 2 -75 0 -122 -4 -58 -2 -86 5 -86 6 0 46 13 89 28 l79 28 33 -48
c33 -47 92 -106 125 -125 15 -9 7 -30 -74 -192 -79 -159 -89 -184 -79 -204 20
-37 127 -182 154 -207 14 -13 25 -31 25 -41 0 -9 -31 -79 -69 -156 l-69 -140
38 -164 c93 -408 184 -709 206 -687 2 3 -9 48 -25 99 -16 52 -43 151 -60 220
-17 69 -38 147 -46 175 -8 27 -31 118 -50 202 l-35 153 48 92 c26 51 59 119
73 152 l25 59 -60 76 c-34 41 -78 100 -98 131 l-38 57 87 175 86 175 50 -21
49 -21 -5 -55 c-4 -31 -12 -247 -18 -481 -13 -431 -4 -795 22 -975 23 -152 46
-340 43 -344 -1 -2 -38 14 -81 36 l-77 39 -28 90 c-41 131 -105 486 -127 699
-6 55 -18 172 -27 260 -9 88 -25 221 -36 295 -10 74 -23 164 -28 200 -5 36 -9
111 -10 167 0 58 -5 114 -12 130 -12 26 -13 24 -16 -40 l-3 -68 -62 53 c-34
29 -109 98 -167 153 -88 84 -107 108 -121 150 -25 81 -88 185 -154 255 -53 56
-64 74 -78 129 l-15 63 151 -7 c84 -4 156 -10 161 -15z m1671 -47 c62 -55 58
-63 -30 -63 -89 0 -94 -7 -69 -79 23 -67 26 -62 -44 -76 l-33 -7 6 74 c9 107
12 116 46 133 16 9 35 27 41 40 6 14 15 25 20 25 5 0 34 -21 63 -47z m-2881
-14 c3 -17 6 -100 6 -184 l0 -153 -34 -21 c-40 -25 -110 -99 -155 -164 -82
-119 -127 -328 -117 -537 3 -69 11 -142 16 -162 10 -34 8 -41 -13 -64 l-24
-26 -26 33 c-13 19 -53 89 -88 157 l-64 124 2 221 c2 249 13 302 76 381 18 23
52 80 76 128 26 53 58 101 81 120 69 61 234 177 251 178 4 0 9 -14 13 -31z
m1078 -290 c26 -52 50 -114 54 -139 l6 -45 -31 29 c-17 17 -31 34 -31 39 0 19
-93 139 -115 149 -21 9 -22 16 -21 85 l1 75 45 -49 c25 -27 66 -92 92 -144z
m-398 52 c33 -11 63 -24 68 -29 4 -4 -10 -43 -32 -86 -36 -73 -59 -166 -47
-198 2 -7 10 7 16 32 24 88 65 181 97 218 27 31 33 34 39 20 5 -12 -2 -28 -18
-48 -32 -37 -64 -122 -73 -192 -4 -29 -18 -74 -30 -99 -68 -135 -50 -272 48
-354 18 -16 41 -42 51 -59 45 -74 134 -149 207 -171 22 -7 23 -6 11 9 -7 9
-10 16 -5 16 5 0 19 3 32 6 21 6 22 3 22 -45 0 -57 -7 -61 -65 -37 -43 18
-144 93 -152 112 -3 8 -9 14 -14 14 -24 0 23 -55 84 -100 47 -34 82 -51 113
-56 l44 -6 0 -147 0 -147 -35 -34 -36 -35 -22 27 c-48 57 -107 60 -151 8 l-24
-29 -22 24 c-48 51 -89 41 -149 -35 -40 -50 -41 -51 -50 -28 -10 26 -6 38 13
38 7 0 21 9 31 20 10 11 13 20 7 20 -6 0 -14 -4 -17 -10 -3 -6 -19 -10 -34
-10 -21 0 -31 7 -43 33 -15 32 -13 55 16 147 14 43 -21 2 -37 -44 l-13 -39
-35 59 c-19 32 -36 63 -38 67 -2 5 6 18 17 30 24 25 66 116 59 124 -3 3 -17
-17 -30 -44 -26 -51 -63 -91 -74 -80 -3 4 4 18 16 31 31 33 61 118 68 192 8
81 -12 87 -21 7 -13 -113 -56 -203 -91 -189 -16 6 -15 10 12 39 37 39 50 78
62 182 5 44 17 105 26 135 10 35 15 76 12 111 -5 61 -39 148 -68 174 -10 10
-24 34 -30 54 -29 89 -104 162 -195 191 -48 14 -53 18 -41 33 20 28 78 4 147
-60 66 -61 81 -51 24 15 -38 45 -80 71 -129 82 -27 5 -30 10 -33 51 -3 52 3
60 68 78 153 45 338 49 444 12z m301 -78 c36 -39 95 -148 95 -177 0 -22 20
-20 20 2 1 13 8 8 30 -17 36 -42 95 -186 110 -269 16 -92 17 -325 1 -407 l-14
-69 -15 49 c-9 33 -11 55 -4 65 15 24 25 80 14 80 -5 0 -13 -14 -18 -31 -5
-17 -13 -30 -19 -29 -5 1 -8 7 -6 13 34 97 41 129 41 179 0 32 -4 58 -10 58
-6 0 -10 -27 -10 -60 0 -62 -34 -175 -50 -165 -5 3 -2 21 6 41 8 19 17 62 19
95 2 32 9 75 16 96 7 23 9 63 5 112 -8 96 -43 172 -96 209 -26 18 -40 37 -44
58 -7 35 -71 139 -104 168 -12 11 -22 23 -22 28 0 17 20 7 55 -29z m-39 -34
c27 -25 68 -90 78 -124 6 -19 2 -20 -73 -17 -69 4 -87 1 -137 -22 -31 -14 -58
-26 -60 -26 -9 0 36 134 58 171 24 41 29 44 67 43 29 -1 50 -9 67 -25z m-933
-49 c3 -13 -6 -33 -25 -57 -59 -72 -83 -139 -83 -228 0 -127 18 -141 25 -19 4
91 9 107 41 169 35 67 59 92 59 62 0 -8 -6 -20 -14 -26 -31 -26 -57 -112 -61
-199 -2 -48 -7 -114 -10 -148 -8 -68 13 -169 44 -213 10 -14 28 -45 39 -68 29
-56 127 -160 174 -184 21 -11 38 -21 38 -23 0 -3 3 -11 6 -20 20 -51 -131 27
-208 107 -32 33 -58 64 -58 69 0 4 -5 8 -11 8 -19 0 35 -82 81 -122 48 -43
136 -91 185 -102 24 -5 38 -21 69 -74 21 -37 79 -134 127 -215 49 -81 89 -153
89 -159 0 -13 -128 -5 -213 14 -79 16 -221 81 -283 128 -73 57 -123 119 -103
130 8 5 23 16 34 25 20 16 19 16 -5 10 -14 -4 -53 -9 -87 -12 -51 -4 -68 -2
-102 18 -100 56 -90 201 19 266 36 21 39 32 5 25 -34 -6 -43 22 -51 165 -11
204 33 415 113 533 37 55 137 160 152 160 5 0 11 -9 14 -20z m2717 -47 c212
-226 296 -518 269 -938 -26 -418 -68 -815 -88 -839 -27 -32 -319 -226 -340
-226 -12 0 40 628 74 900 21 168 40 428 32 436 -14 14 -19 -5 -29 -108 -15
-155 -14 -154 -86 -43 l-63 97 71 105 71 105 -36 66 c-77 139 -175 278 -175
247 0 -5 29 -57 63 -115 35 -58 75 -125 90 -150 l25 -46 -51 -75 c-29 -42 -60
-91 -70 -110 l-18 -34 64 -97 c96 -144 100 -155 87 -232 -12 -75 -34 -291 -55
-551 -8 -99 -16 -189 -18 -200 -4 -36 -76 188 -107 334 -17 78 -39 215 -50
304 -11 89 -24 196 -30 237 -6 41 -13 220 -17 397 l-6 322 44 20 c105 46 227
155 259 230 7 17 16 31 20 31 4 0 36 -30 70 -67z m-1302 -252 c72 -63 72 -63
72 -115 0 -28 9 -107 20 -176 25 -153 58 -422 71 -590 6 -69 21 -188 34 -265
13 -77 29 -176 35 -220 6 -44 27 -140 46 -214 19 -73 33 -136 31 -138 -3 -2
-60 26 -128 62 -67 36 -131 65 -140 65 -20 0 -279 129 -279 139 0 3 21 26 47
51 89 87 122 165 92 222 -13 25 -68 48 -113 48 l-36 0 6 48 c3 26 15 97 26
157 11 61 22 153 23 205 2 52 4 100 4 107 1 6 19 22 41 34 56 32 84 91 78 169
-3 49 -10 66 -41 106 -33 43 -37 53 -37 108 0 103 -19 187 -65 291 -25 55 -45
111 -45 125 0 21 12 13 93 -66 50 -50 125 -119 165 -153z m-1165 192 c40 -28
107 -105 107 -123 0 -5 -15 0 -34 11 -89 52 -235 28 -316 -54 l-42 -42 7 60
c11 94 48 155 95 155 15 0 34 7 41 16 20 24 92 13 142 -23z m712 -43 c-4 -19
-3 -30 4 -30 6 0 11 5 11 12 0 6 7 3 15 -8 11 -15 14 -16 15 -4 0 9 -5 21 -12
28 -22 22 3 27 40 7 27 -15 38 -28 40 -48 3 -23 6 -26 17 -17 11 9 18 3 36
-31 31 -61 33 -210 4 -253 l-19 -29 -33 38 c-21 25 -33 33 -33 22 0 -9 11 -28
25 -43 14 -15 25 -30 25 -35 0 -9 -57 -44 -88 -54 -26 -8 -61 26 -62 60 0 16
-2 17 -10 5 -6 -10 -3 -25 11 -47 l21 -33 -51 0 c-60 0 -71 13 -40 46 22 24
14 35 -9 12 -9 -9 -14 -6 -21 13 -9 21 -10 19 -10 -19 l-1 -42 -37 19 c-50 25
-77 56 -104 115 -17 40 -20 60 -15 107 12 100 59 185 116 209 34 14 50 7 50
-23 1 -21 1 -21 11 -4 8 14 8 22 0 30 -21 21 -11 27 50 27 l61 0 -7 -30z
m-695 -79 c22 -6 25 -13 24 -49 -1 -34 2 -40 13 -31 9 9 17 8 28 -1 20 -17 19
-1 -1 21 -32 35 -8 39 32 5 81 -69 110 -188 75 -304 -22 -74 -57 -119 -112
-148 -26 -13 -30 -13 -35 1 -4 8 -4 24 -1 35 3 11 1 23 -4 26 -5 3 -9 -15 -9
-39 0 -41 -2 -45 -30 -50 -52 -11 -88 2 -92 32 -2 14 3 36 11 49 17 28 6 42
-14 16 -13 -17 -14 -17 -15 -1 0 9 -4 17 -10 17 -13 0 -13 -3 6 -50 9 -23 14
-44 10 -47 -12 -12 -77 30 -116 74 -63 72 -88 207 -54 293 18 46 40 52 54 15
5 -14 12 -25 16 -25 3 0 3 7 0 16 -4 12 -2 15 9 10 27 -10 16 14 -12 26 -16 7
-30 13 -32 15 -12 9 80 83 103 83 3 0 13 -14 21 -31 9 -17 19 -28 22 -26 3 3
-2 19 -10 36 -11 22 -12 31 -3 35 17 7 98 5 126 -3z m2033 -353 c9 -494 65
-892 173 -1217 51 -154 61 -208 48 -257 -6 -24 -159 -100 -299 -150 l-76 -27
-82 38 c-45 21 -85 41 -89 44 -6 5 -30 165 -58 381 -26 208 -33 522 -21 946 6
236 15 455 18 487 5 53 8 57 27 50 30 -9 244 -5 286 6 73 19 66 44 73 -301z
m-1167 -8 c-9 -58 -25 -88 -51 -94 -14 -4 -27 -18 -33 -36 -10 -28 -14 -30
-66 -30 -54 0 -56 1 -111 57 -30 31 -55 60 -55 64 0 4 14 3 31 -3 70 -24 225
14 268 66 21 25 24 19 17 -24z m184 -133 c0 -50 -17 -94 -45 -117 -23 -19 -26
-9 -16 51 10 54 19 130 21 159 0 9 8 3 20 -15 13 -19 20 -47 20 -78z m-168
-28 c10 -13 25 -62 34 -109 19 -97 14 -251 -11 -360 -20 -92 -39 -313 -29
-357 l7 -38 8 40 c4 22 8 57 8 78 1 37 1 37 44 37 80 0 113 -50 78 -118 -29
-57 -129 -162 -154 -162 -20 -1 -20 -3 8 -25 17 -14 43 -31 58 -38 l28 -14
-34 -26 c-26 -19 -64 -76 -83 -125 -1 -1 -37 16 -80 38 -47 24 -110 47 -154
55 -41 9 -85 17 -97 20 -32 7 -91 62 -112 104 -10 20 -37 88 -61 151 -46 128
-56 147 -193 374 -53 87 -111 187 -128 221 -50 95 -23 126 51 59 56 -51 119
-150 191 -298 82 -170 135 -224 159 -162 10 27 2 96 -11 96 -5 0 -9 -21 -9
-46 0 -51 -12 -54 -43 -12 -16 21 -17 29 -7 48 22 40 82 100 102 100 29 0 63
-40 106 -127 22 -43 48 -86 58 -94 21 -17 21 -18 -26 89 -38 85 -35 120 13
136 40 14 74 -7 113 -72 38 -63 92 -127 101 -119 3 4 0 13 -6 21 -9 11 -9 31
2 91 19 97 21 280 6 439 -6 69 -9 133 -5 142 6 14 9 15 28 2 12 -8 30 -26 40
-39z m-738 -16 c-7 -32 -13 -63 -14 -69 0 -7 -13 -26 -29 -43 -28 -30 -30 -30
-59 -16 -24 12 -35 13 -55 4 -22 -10 -32 -8 -69 14 -38 23 -128 115 -128 132
0 3 12 -3 28 -14 36 -27 112 -43 165 -35 40 6 140 55 152 75 17 27 22 2 9 -48z
m-520 -453 c42 -64 149 -145 245 -185 111 -47 194 -66 306 -70 l90 -4 21 -53
c12 -29 38 -96 58 -149 40 -105 90 -173 142 -195 l32 -13 7 -143 c4 -79 5
-171 3 -204 l-3 -61 -95 26 c-69 20 -94 31 -92 42 49 202 73 359 55 359 -9 0
-24 -57 -38 -145 -12 -80 -48 -215 -57 -215 -5 0 -55 18 -111 40 -190 74 -411
197 -578 321 l-70 52 24 26 c61 67 180 207 188 223 5 10 6 18 1 18 -10 0 -133
-127 -186 -192 -21 -27 -44 -48 -51 -48 -19 0 -279 254 -274 268 3 10 348 342
354 342 1 0 14 -18 29 -40z m1170 -47 c-11 -61 -20 -72 -35 -40 -11 24 -10 30
11 52 13 14 25 25 27 25 2 0 1 -17 -3 -37z m1956 -323 l30 -105 -46 -42 c-25
-24 -49 -43 -54 -43 -4 0 -3 21 1 48 5 26 14 93 20 150 6 57 13 102 15 100 1
-2 17 -51 34 -108z m-1680 -281 c33 -16 60 -33 60 -36 0 -3 -11 -14 -25 -25
-13 -10 -41 -46 -61 -78 l-37 -60 -61 35 c-46 25 -62 40 -64 59 -6 46 69 134
115 136 7 0 40 -14 73 -31z m-396 -49 c16 -6 96 -48 176 -95 l147 -85 -5 -75
-5 -75 94 -43 c52 -24 105 -49 119 -55 20 -10 -13 -11 -170 -8 -172 4 -344 22
-435 45 l-30 7 -6 160 c-4 87 -7 177 -9 199 -1 22 -2 43 -1 46 1 7 83 -6 125
-21z m730 -109 c111 -61 252 -133 314 -162 80 -37 109 -55 99 -61 -49 -27
-420 -99 -504 -97 -24 0 -85 22 -163 58 l-125 57 1 65 c2 69 18 111 68 179 24
32 78 70 100 70 5 0 100 -49 210 -109z"/>
<path d="M4663 5020 c-48 -11 -96 -43 -121 -80 -33 -49 -20 -48 30 3 54 54
122 75 184 58 59 -17 74 -12 29 10 -42 20 -70 22 -122 9z"/>
<path d="M4150 5000 c0 -5 15 -10 33 -10 54 0 101 -18 146 -56 23 -20 44 -34
47 -31 10 10 -48 66 -89 86 -45 22 -137 29 -137 11z"/>
<path d="M3975 4906 c-91 -48 -106 -63 -146 -149 -29 -62 -33 -83 -34 -152 -1
-272 238 -412 491 -288 111 54 147 121 148 273 1 124 -15 168 -86 241 -62 64
-142 101 -231 107 -68 4 -76 2 -142 -32z m260 -28 c59 -31 119 -88 148 -143
18 -33 22 -56 22 -140 -1 -121 -24 -179 -88 -226 -51 -37 -154 -69 -221 -69
-67 0 -163 46 -206 98 -72 87 -87 236 -35 347 31 64 66 100 137 138 47 26 61
28 123 24 49 -3 85 -12 120 -29z"/>
<path d="M4234 4589 c-19 -21 -14 -44 13 -51 28 -7 53 14 47 39 -8 29 -39 35
-60 12z"/>
<path d="M4525 4343 c4 -21 7 -81 6 -133 -1 -132 -20 -190 -62 -190 -29 0 -48
40 -54 111 -10 104 -15 130 -27 123 -17 -11 -4 -175 18 -220 16 -33 24 -39 54
-42 41 -3 70 22 89 77 14 43 14 238 0 280 -16 44 -33 40 -24 -6z"/>
<path d="M4600 4291 c0 -15 38 -48 79 -68 55 -27 156 -24 204 5 20 13 34 28
31 34 -4 5 -13 3 -22 -5 -55 -49 -166 -43 -248 13 -24 17 -44 26 -44 21z"/>
<path d="M3900 4242 c0 -41 157 -99 237 -87 59 9 123 32 145 52 33 30 19 32
-29 5 -43 -24 -58 -27 -148 -27 -102 0 -117 4 -182 51 -13 9 -23 12 -23 6z"/>
<path d="M4820 3802 c0 -4 15 -16 34 -26 42 -22 63 -67 50 -104 -7 -19 -21
-29 -53 -39 -59 -17 -62 -23 -12 -23 83 0 120 83 66 148 -24 28 -85 60 -85 44z"/>
<path d="M4307 3769 c-90 -9 -185 -34 -242 -62 -58 -29 -33 -30 66 -4 l86 23
21 -32 c11 -17 40 -45 64 -61 29 -19 51 -45 68 -79 33 -68 48 -84 76 -84 32 0
54 45 54 113 0 51 3 57 35 81 23 18 35 35 35 52 0 21 4 24 38 24 20 0 68 -7
107 -15 38 -8 86 -15 105 -15 l35 1 -27 14 c-15 9 -80 24 -144 35 -120 21
-240 24 -377 9z m243 -39 c0 -11 -9 -28 -20 -37 -11 -10 -29 -26 -40 -35 -16
-15 -20 -30 -20 -82 0 -45 -4 -67 -16 -76 -20 -18 -37 0 -61 65 -15 40 -29 57
-67 82 -50 33 -83 70 -71 81 8 8 117 18 223 20 66 2 72 0 72 -18z"/>
<path d="M3965 3729 c-56 -50 -45 -113 24 -134 26 -8 111 13 111 27 0 5 -10 6
-22 2 -35 -11 -96 -8 -113 6 -31 25 -9 76 49 111 28 17 29 19 9 19 -12 0 -38
-14 -58 -31z"/>
<path d="M4257 3533 c-14 -13 -7 -50 13 -68 16 -15 22 -15 35 -5 18 15 20 51
3 68 -13 13 -41 16 -51 5z m41 -37 c3 -12 -1 -17 -10 -14 -7 3 -15 13 -16 22
-3 12 1 17 10 14 7 -3 15 -13 16 -22z"/>
<path d="M4535 3490 c-10 -33 21 -72 53 -68 20 2 28 10 30 26 7 50 -69 87 -83
42z m59 -16 c9 -25 7 -34 -9 -34 -12 0 -35 28 -35 44 0 14 38 5 44 -10z"/>
<path d="M4690 4602 c-17 -8 -20 -36 -5 -51 16 -16 52 -2 59 22 8 31 -19 45
-54 29z"/>
<path d="M2790 4370 c14 -19 27 -55 30 -80 6 -45 6 -45 19 -18 12 23 11 31 -5
64 -11 21 -30 45 -44 53 l-25 16 25 -35z"/>
<path d="M2640 4385 c0 -2 10 -20 21 -40 18 -30 20 -40 10 -61 -15 -33 -14
-39 4 -24 24 20 27 48 10 84 -14 28 -45 57 -45 41z"/>
<path d="M2405 4270 c0 -70 8 -79 24 -24 8 29 -3 94 -17 94 -4 0 -7 -31 -7
-70z"/>
<path d="M2974 3554 c-10 -14 -19 -49 -20 -77 l-4 -52 14 45 c7 25 20 60 30
78 20 38 4 43 -20 6z"/>
<path d="M2630 3528 c41 -32 65 -69 115 -178 25 -55 26 -55 19 -15 -10 65 -72
173 -116 201 -55 35 -67 29 -18 -8z"/>
<path d="M2970 2910 c0 -5 16 -21 35 -36 47 -35 59 -58 45 -84 -13 -24 -50
-26 -110 -5 -51 18 -64 19 -54 4 11 -18 87 -49 122 -49 74 0 97 79 38 135 -34
32 -76 51 -76 35z"/>
<path d="M3101 2659 c-69 -27 -143 -117 -182 -219 -25 -66 -7 -64 27 3 67 132
138 197 216 197 50 0 82 -19 104 -62 20 -38 31 -29 14 12 -20 49 -65 80 -113
79 -23 0 -53 -5 -66 -10z"/>
<path d="M3108 2559 c-34 -18 -68 -62 -68 -89 0 -6 19 10 43 35 26 27 56 47
75 51 17 4 29 10 26 15 -8 14 -36 10 -76 -12z"/>
<path d="M2185 3332 c-14 -27 -20 -65 -22 -147 -3 -95 -1 -115 17 -150 18 -36
19 -37 14 -10 -16 79 -16 224 1 280 19 68 16 79 -10 27z"/>
<path d="M2320 2633 c0 -14 61 -69 95 -85 39 -19 95 -30 95 -19 0 5 -15 13
-32 16 -45 10 -81 29 -123 66 -19 17 -35 27 -35 22z"/>
<path d="M3184 3173 c-8 -29 -6 -37 13 -39 25 -4 52 14 49 33 -4 24 -56 29
-62 6z"/>
<path d="M2623 3073 c-7 -2 -13 -15 -13 -27 0 -19 6 -23 31 -24 27 -1 30 2 27
26 -3 26 -20 36 -45 25z"/>
<path d="M4301 6864 c-61 -233 -91 -367 -91 -404 1 -123 100 -210 239 -210 62
0 106 17 145 56 44 45 61 86 114 291 l50 192 -30 6 c-16 4 -33 3 -38 -1 -4 -5
-26 -83 -50 -174 -47 -186 -65 -233 -104 -271 -71 -71 -219 -27 -246 71 -12
45 -13 37 47 278 25 100 44 184 41 187 -2 3 -18 8 -36 11 -29 6 -31 4 -41 -32z"/>
<path d="M2808 6839 c-29 -11 -33 -28 -60 -231 -7 -54 -15 -98 -19 -98 -4 0
-58 49 -122 110 l-115 110 -36 -13 -37 -13 88 -84 c49 -47 117 -111 151 -143
59 -56 64 -64 100 -168 l37 -110 30 7 c16 3 32 8 35 11 3 2 -13 55 -34 117
l-38 112 31 186 c17 103 31 194 31 202 0 18 -4 18 -42 5z"/>
<path d="M1575 6190 c-16 -18 -16 -20 5 -47 12 -15 77 -87 146 -160 68 -72
124 -133 124 -136 0 -3 -8 -3 -17 -1 -36 8 -566 64 -570 60 -2 -2 89 -104 203
-225 l207 -222 23 22 23 22 -37 42 c-20 24 -89 98 -152 165 l-115 123 40 -7
c22 -3 144 -17 270 -31 127 -14 242 -26 258 -28 15 -2 27 0 27 4 0 10 -400
439 -410 439 -4 0 -15 -9 -25 -20z"/>
<path d="M6143 5717 c-43 -34 -143 -113 -223 -176 -80 -62 -149 -117 -153
-121 -8 -7 158 -220 172 -220 4 0 16 9 25 19 17 19 16 22 -36 88 -30 37 -57
73 -61 80 -5 8 20 34 68 73 42 33 80 60 85 60 4 0 31 -29 59 -65 28 -36 55
-65 59 -65 4 0 16 7 27 16 22 17 23 14 -47 102 l-47 60 61 48 c34 27 70 55 79
62 16 11 24 4 74 -60 31 -40 60 -74 64 -76 5 -1 18 5 30 15 l21 18 -81 103
c-44 56 -85 102 -89 102 -4 0 -43 -28 -87 -63z"/>
<path d="M892 5408 c-62 -100 -68 -114 -54 -124 74 -50 482 -304 489 -304 4 0
41 51 80 113 71 111 72 112 51 130 -11 9 -24 17 -28 17 -4 0 -30 -35 -56 -77
-27 -42 -52 -81 -55 -86 -6 -8 -179 97 -179 108 0 3 21 37 46 77 l46 72 -22
18 c-12 10 -26 16 -30 13 -4 -2 -27 -36 -50 -75 -23 -38 -45 -70 -49 -70 -8 0
-161 98 -161 104 0 2 22 40 49 84 47 76 49 81 32 96 -10 9 -22 16 -28 16 -6 0
-42 -51 -81 -112z"/>
<path d="M6563 5178 c-26 -34 -81 -107 -120 -162 l-73 -100 -102 -48 c-56 -27
-104 -50 -106 -53 -5 -4 18 -65 24 -65 2 0 52 23 111 51 l108 50 198 -12 c109
-6 200 -9 203 -6 3 3 -2 19 -11 36 -14 28 -21 31 -63 32 -26 1 -99 4 -163 8
l-117 6 100 129 c96 124 99 129 87 157 -6 16 -15 32 -20 34 -4 3 -29 -23 -56
-57z"/>
<path d="M686 4837 c-53 -13 -109 -72 -136 -143 -41 -109 -62 -93 250 -203
151 -54 279 -95 283 -91 4 4 9 19 10 34 2 26 -3 29 -98 63 -55 20 -101 36
-102 37 -1 1 4 24 12 51 20 66 19 92 -9 151 -37 79 -125 121 -210 101z m101
-87 c50 -30 66 -62 61 -121 -3 -27 -10 -55 -15 -60 -7 -7 -47 2 -119 27 -60
21 -111 39 -113 40 -7 6 22 69 43 93 40 44 92 52 143 21z"/>
<path d="M6630 4368 c-157 -33 -286 -61 -287 -62 -1 -1 57 -269 60 -272 1 -1
14 0 30 3 32 6 33 11 8 123 -11 47 -18 86 -17 87 4 5 198 44 202 41 2 -2 12
-42 21 -89 16 -73 21 -84 38 -81 42 6 43 7 24 94 -10 45 -19 86 -19 89 0 6
155 39 183 39 10 0 20 -26 32 -90 10 -50 21 -93 25 -95 5 -3 19 -1 33 4 l24 9
-26 128 c-15 70 -31 129 -37 130 -5 1 -137 -25 -294 -58z"/>
<path d="M590 4101 c-137 -45 -214 -149 -214 -291 0 -175 119 -300 296 -308
66 -4 84 -1 135 23 71 32 116 74 151 140 23 43 27 62 27 140 0 74 -4 97 -23
132 -58 110 -145 165 -271 169 -42 2 -87 0 -101 -5z m210 -99 c36 -18 64 -42
85 -70 28 -40 30 -50 30 -126 0 -73 -3 -87 -28 -124 -16 -24 -49 -54 -80 -72
-44 -25 -63 -30 -120 -30 -79 0 -128 18 -176 63 -135 128 -66 351 119 386 62
11 106 4 170 -27z"/>
<path d="M6426 3738 c-3 -13 -6 -48 -6 -78 0 -94 56 -166 137 -177 67 -9 109
12 192 98 81 82 114 99 160 79 38 -15 56 -53 54 -112 l-1 -48 34 0 34 0 0 58
c-1 112 -59 182 -153 182 -69 0 -94 -14 -177 -100 -72 -75 -78 -80 -118 -80
-73 0 -116 71 -94 153 12 41 8 47 -29 47 -19 0 -28 -6 -33 -22z"/>
<path d="M5120 1306 l-24 -14 3 -161 c1 -89 0 -161 -4 -161 -4 0 -65 41 -137
91 l-130 92 -36 -17 c-42 -20 -43 -19 73 -98 256 -174 229 -149 286 -261 28
-56 53 -104 55 -105 4 -6 65 32 61 38 -1 3 -26 52 -56 110 l-54 105 7 198 c8
212 8 211 -44 183z"/>
<path d="M2353 1248 c-6 -13 -76 -130 -156 -261 l-146 -237 31 -16 c36 -19 25
-33 149 180 l94 161 6 -165 c3 -91 7 -191 8 -224 1 -47 4 -57 16 -52 16 6 272
203 319 245 l28 26 -7 -25 c-4 -14 -34 -101 -65 -195 l-58 -170 25 -13 c13 -7
29 -12 35 -10 10 4 198 559 192 567 -5 6 -61 -35 -246 -179 -92 -71 -169 -130
-171 -130 -2 0 -7 66 -11 148 -12 271 -19 372 -26 372 -4 0 -11 -10 -17 -22z"/>
<path d="M4425 1015 c-180 -50 -190 -54 -187 -76 4 -37 13 -39 87 -18 38 10
75 19 82 19 13 0 24 -35 93 -290 63 -235 58 -223 89 -215 14 3 29 9 33 13 4 4
-24 121 -63 261 -38 140 -68 255 -67 256 2 2 40 13 86 25 76 21 83 25 78 44
-3 11 -6 24 -6 29 0 13 -32 6 -225 -48z"/>
<path d="M3155 948 c-219 -81 -274 -372 -100 -526 25 -22 67 -48 92 -56 59
-20 157 -20 216 0 60 20 131 84 165 148 23 45 27 62 27 146 0 81 -4 102 -24
142 -29 57 -71 98 -131 130 -35 18 -63 23 -130 25 -47 1 -98 -3 -115 -9z m219
-82 c157 -92 146 -343 -19 -429 -55 -28 -146 -28 -201 1 -82 42 -124 115 -124
215 0 188 188 305 344 213z"/>
<path d="M3805 921 c-35 -8 -34 29 -9 -333 l18 -268 35 0 34 0 -6 130 c-8 146
-3 156 48 92 16 -20 63 -74 103 -120 69 -77 76 -82 114 -82 22 0 38 4 36 10
-1 5 -50 61 -106 125 -57 64 -102 118 -100 119 1 1 19 15 40 30 46 34 68 81
68 144 0 120 -120 187 -275 153z m157 -73 c23 -11 48 -60 48 -93 0 -61 -55
-115 -118 -115 l-29 0 -6 83 c-10 123 -9 135 11 140 21 5 71 -3 94 -15z"/>
</g>
</svg>
